<?xml version="1.0" standalone="no"?><!DOCTYPE svg PUBLIC "-//W3C//DTD SVG 1.1//EN" "http://www.w3.org/Graphics/SVG/1.1/DTD/svg11.dtd"><svg t="1613558348833" class="icon" viewBox="0 0 1129 1024" version="1.1" xmlns="http://www.w3.org/2000/svg" p-id="2109" xmlns:xlink="http://www.w3.org/1999/xlink" width="220.5078125" height="200"><defs><style type="text/css"></style></defs><path d="M1041.88182 555.032371a54.623938 54.623938 0 0 0 72.879917 0 45.019949 45.019949 0 0 0 0-67.369923L601.464319 13.981984a54.623938 54.623938 0 0 0-73.019918 0L15.182983 487.626448a45.019949 45.019949 0 0 0 0 67.369923 54.623938 54.623938 0 0 0 72.879917 0l476.89146-440.099501 476.92746 440.135501z m0 455.035485a54.623938 54.623938 0 0 0 72.879917 0 45.019949 45.019949 0 0 0 0-67.369924l-513.297418-473.679463a54.623938 54.623938 0 0 0-73.019918 0L15.182983 942.697932a45.019949 45.019949 0 0 0 0 67.369924 54.623938 54.623938 0 0 0 72.879917 0L564.95336 569.899354l476.92746 440.134502z" p-id="2110"></path></svg>