<?xml version="1.0" standalone="no"?><!DOCTYPE svg PUBLIC "-//W3C//DTD SVG 1.1//EN" "http://www.w3.org/Graphics/SVG/1.1/DTD/svg11.dtd"><svg t="1613881481549" class="icon" viewBox="0 0 1024 1024" version="1.1" xmlns="http://www.w3.org/2000/svg" p-id="7148" xmlns:xlink="http://www.w3.org/1999/xlink" width="200" height="200"><defs><style type="text/css"></style></defs><path d="M829.44 433.152H194.56c-33.792 0-60.928 27.136-60.928 60.928v445.952c0 33.792 27.136 60.928 60.928 60.928h634.88c33.792 0 60.928-27.136 60.928-60.928V494.08c0-33.792-27.136-60.928-60.928-60.928z m-283.136 295.424v97.28c0 4.608-3.584 8.192-8.192 8.192H485.888c-4.608 0-8.192-3.584-8.192-8.192v-97.28c-24.576-12.8-41.984-37.888-41.984-67.584 0-41.984 34.304-76.288 76.288-76.288s76.288 34.304 76.288 76.288c0 29.696-17.408 55.296-41.984 67.584z m0 0M359.424 273.92c0-83.968 68.608-152.576 152.576-152.576s152.576 68.608 152.576 152.576v158.72h94.72V269.824c0-136.704-111.104-247.296-247.296-247.296-136.704 0-247.296 111.104-247.296 247.296v162.816h95.232l-0.512-158.72z m0 0" p-id="7149"></path></svg>