<?xml version="1.0" standalone="no"?><!DOCTYPE svg PUBLIC "-//W3C//DTD SVG 1.1//EN" "http://www.w3.org/Graphics/SVG/1.1/DTD/svg11.dtd"><svg t="1613881498061" class="icon" viewBox="0 0 1024 1024" version="1.1" xmlns="http://www.w3.org/2000/svg" p-id="7299" xmlns:xlink="http://www.w3.org/1999/xlink" width="200" height="200"><defs><style type="text/css"></style></defs><path d="M813.312 386.688 210.752 386.688c-42.624 0-77.504 34.944-77.504 77.504l0 482.112c0 42.624 34.88 77.504 77.504 77.504l602.56 0c42.624 0 77.44-34.88 77.44-77.504L890.752 464.128C890.752 421.568 855.936 386.688 813.312 386.688zM560.192 663.232l0.192 156.48c0 39.616-4.288 70.656-48.32 70.656-44.096 0-47.808-32-47.808-71.616l-1.152-155.52c0 0-30.912-27.136-30.912-73.728 0-46.656 35.84-71.616 79.936-71.616 44.032 0 79.808 25.92 79.808 71.616C591.872 635.136 560.192 663.232 560.192 663.232z" p-id="7300"></path><path d="M570.88 88C552.832 80.256 532.928 76.032 512.064 75.968 428.608 76.032 360.64 144.064 360.512 227.52l0 91.008L284.736 318.528 284.736 227.52c0.064-68.672 30.72-130.432 79.168-172.096 39.808-34.368 91.648-55.104 148.16-55.168 27.776 0 54.208 5.056 78.784 14.208L570.88 88z" p-id="7301"></path></svg>